<svg xmlns="http://www.w3.org/2000/svg" width="114.627" height="14" viewBox="0 0 114.627 14">
  <g id="Group_185" data-name="Group 185" transform="translate(-333 -4003.29)">
    <path id="star" d="M27.028.474l-1.785,3.62-3.994.582a.875.875,0,0,0-.484,1.493l2.89,2.816-.684,3.978a.874.874,0,0,0,1.269.921l3.573-1.878,3.573,1.878a.875.875,0,0,0,1.269-.921l-.683-3.978,2.89-2.816a.875.875,0,0,0-.484-1.493l-3.994-.582L28.6.474A.876.876,0,0,0,27.028.474Z" transform="translate(312.501 4003.302)" fill="#ffb51f"/>
    <path id="star-2" data-name="star" d="M27.028.474l-1.785,3.62-3.994.582a.875.875,0,0,0-.484,1.493l2.89,2.816-.684,3.978a.874.874,0,0,0,1.269.921l3.573-1.878,3.573,1.878a.875.875,0,0,0,1.269-.921l-.683-3.978,2.89-2.816a.875.875,0,0,0-.484-1.493l-3.994-.582L28.6.474A.876.876,0,0,0,27.028.474Z" transform="translate(337.501 4003.302)" fill="#ffb51f"/>
    <path id="star-3" data-name="star" d="M27.028.474l-1.785,3.62-3.994.582a.875.875,0,0,0-.484,1.493l2.89,2.816-.684,3.978a.874.874,0,0,0,1.269.921l3.573-1.878,3.573,1.878a.875.875,0,0,0,1.269-.921l-.683-3.978,2.89-2.816a.875.875,0,0,0-.484-1.493l-3.994-.582L28.6.474A.876.876,0,0,0,27.028.474Z" transform="translate(362.501 4003.302)" fill="#ffb51f"/>
    <path id="star-4" data-name="star" d="M27.028.474l-1.785,3.62-3.994.582a.875.875,0,0,0-.484,1.493l2.89,2.816-.684,3.978a.874.874,0,0,0,1.269.921l3.573-1.878,3.573,1.878a.875.875,0,0,0,1.269-.921l-.683-3.978,2.89-2.816a.875.875,0,0,0-.484-1.493l-3.994-.582L28.6.474A.876.876,0,0,0,27.028.474Z" transform="translate(387.501 4003.302)" fill="#ffb51f"/>
    <path id="star-5" data-name="star" d="M27.028.474l-1.785,3.62-3.994.582a.875.875,0,0,0-.484,1.493l2.89,2.816-.684,3.978a.874.874,0,0,0,1.269.921l3.573-1.878,3.573,1.878a.875.875,0,0,0,1.269-.921l-.683-3.978,2.89-2.816a.875.875,0,0,0-.484-1.493l-3.994-.582L28.6.474A.876.876,0,0,0,27.028.474Z" transform="translate(412.501 4003.302)" fill="#ffb51f"/>
  </g>
</svg>
